<?xml version="1.0" encoding="UTF-8"?><svg id="Calque_2" xmlns="http://www.w3.org/2000/svg" viewBox="0 0 202.19 98.96"><defs><style>.cls-1{fill:#fff;}</style></defs><g id="Calque_1-2"><g><path class="cls-1" d="M11.05,23.45c1.21,.97,2.41,1.98,3.6,3.02,1.19,1.04,2.25,2.19,3.2,3.42,.94,1.24,1.71,2.62,2.29,4.15s.87,3.27,.87,5.21c0,1.46-.28,2.83-.84,4.12-.56,1.29-1.31,2.4-2.26,3.35-.94,.95-2.05,1.7-3.31,2.26-1.26,.56-2.62,.84-4.07,.84s-2.83-.28-4.11-.84c-1.29-.56-2.4-1.31-3.35-2.25-.95-.95-1.7-2.06-2.25-3.35C.28,42.1,0,40.73,0,39.27H2.4c0,1.12,.22,2.17,.65,3.16,.44,.99,1.02,1.85,1.75,2.58s1.59,1.31,2.58,1.75c.99,.44,2.05,.65,3.16,.65s2.16-.22,3.13-.65c.97-.44,1.82-1.02,2.55-1.75,.73-.73,1.31-1.59,1.75-2.58,.44-.99,.65-2.05,.65-3.16,0-1.65-.25-3.13-.76-4.44-.51-1.31-1.19-2.51-2.04-3.6-.85-1.09-1.82-2.11-2.91-3.05-1.09-.95-2.22-1.88-3.38-2.8-1.16-.92-2.32-1.88-3.46-2.87-1.14-.99-2.16-2.07-3.06-3.24-.9-1.16-1.62-2.45-2.18-3.85C.28,14.01,0,12.39,0,10.55c0-1.45,.28-2.82,.84-4.11,.56-1.28,1.31-2.4,2.25-3.35,.95-.94,2.06-1.7,3.35-2.25C7.72,.28,9.09,0,10.55,0s2.81,.27,4.07,.81c1.26,.54,2.36,1.28,3.31,2.22,.95,.94,1.7,2.05,2.26,3.33,.56,1.29,.84,2.66,.84,4.11h-2.4c0-1.12-.22-2.16-.65-3.13-.44-.97-1.02-1.82-1.75-2.55-.73-.73-1.58-1.31-2.55-1.75-.97-.44-2.01-.65-3.13-.65s-2.17,.22-3.16,.66c-.99,.44-1.85,1.02-2.58,1.75-.73,.73-1.31,1.58-1.75,2.55-.44,.97-.65,2.02-.65,3.13,0,1.55,.24,2.93,.73,4.12s1.13,2.29,1.93,3.31c.8,1.02,1.72,1.98,2.76,2.88,1.04,.9,2.12,1.79,3.24,2.66Z"/><path class="cls-1" d="M28.51,2.69V21.31h13.75v2.4h-13.75v23.35h16.73v2.4H26.11V.29h19.13V2.69H28.51Z"/><path class="cls-1" d="M78.04,.29V49.46h-2.4V7.13l-12.15,33.38L51.27,7.13V49.46h-2.4V.29h2.47l12.15,33.17L75.57,.29h2.47Z"/><path class="cls-1" d="M86.97,2.69V21.31h13.75v2.4h-13.75v23.35h16.73v2.4h-19.13V.29h19.13V2.69h-16.73Z"/><path class="cls-1" d="M128.29,.29V49.43h-2.54L109.83,6.98l.05,42.45h-2.54V.29h2.49l15.97,42.48V.29h2.49Z"/><path class="cls-1" d="M143.75,47.42c1.12,0,2.16-.22,3.13-.65,.97-.44,1.82-1.02,2.55-1.75,.73-.73,1.31-1.59,1.75-2.58,.44-.99,.65-2.05,.65-3.16h2.4c0,1.46-.28,2.83-.84,4.11-.56,1.29-1.31,2.4-2.26,3.35s-2.05,1.7-3.31,2.25c-1.26,.56-2.62,.84-4.07,.84-1.45,0-2.83-.28-4.11-.84-1.29-.56-2.4-1.31-3.35-2.25-.95-.95-1.7-2.06-2.25-3.35-.56-1.28-.84-2.65-.84-4.11V10.55c0-1.45,.28-2.82,.84-4.11,.56-1.28,1.31-2.4,2.25-3.35,.95-.94,2.06-1.7,3.35-2.25C140.93,.28,142.3,0,143.75,0c1.45,0,2.81,.27,4.07,.81,1.26,.54,2.36,1.28,3.31,2.22,.95,.94,1.7,2.05,2.26,3.33,.56,1.29,.84,2.66,.84,4.11h-2.4c0-1.12-.22-2.16-.65-3.13-.44-.97-1.02-1.82-1.75-2.55-.73-.73-1.58-1.31-2.55-1.75-.97-.44-2.01-.65-3.13-.65s-2.17,.22-3.16,.66c-.99,.44-1.85,1.02-2.58,1.75-.73,.73-1.31,1.58-1.75,2.55-.44,.97-.65,2.02-.65,3.13v28.77c0,1.12,.22,2.17,.65,3.17,.44,1,1.02,1.86,1.75,2.59,.73,.73,1.59,1.31,2.58,1.75,.99,.44,2.05,.66,3.16,.66Z"/><path class="cls-1" d="M161.17,2.69V21.31h13.75v2.4h-13.75v23.35h16.73v2.4h-19.13V.29h19.13V2.69h-16.73Z"/><path class="cls-1" d="M192.22,23.45c1.21,.97,2.41,1.98,3.6,3.02,1.19,1.04,2.25,2.19,3.2,3.42,.94,1.24,1.71,2.62,2.29,4.15,.58,1.53,.87,3.27,.87,5.21,0,1.46-.28,2.83-.84,4.12-.56,1.29-1.31,2.4-2.26,3.35-.94,.95-2.05,1.7-3.31,2.26-1.26,.56-2.62,.84-4.07,.84-1.45,0-2.83-.28-4.11-.84-1.29-.56-2.4-1.31-3.35-2.25-.95-.95-1.7-2.06-2.25-3.35-.56-1.28-.84-2.65-.84-4.11h2.4c0,1.12,.22,2.17,.65,3.16,.44,.99,1.02,1.85,1.75,2.58s1.59,1.31,2.58,1.75c.99,.44,2.05,.65,3.16,.65s2.16-.22,3.13-.65c.97-.44,1.82-1.02,2.55-1.75,.73-.73,1.31-1.59,1.75-2.58,.44-.99,.65-2.05,.65-3.16,0-1.65-.25-3.13-.76-4.44-.51-1.31-1.19-2.51-2.04-3.6-.85-1.09-1.82-2.11-2.91-3.05-1.09-.95-2.22-1.88-3.38-2.8-1.16-.92-2.32-1.88-3.46-2.87-1.14-.99-2.16-2.07-3.06-3.24-.9-1.16-1.62-2.45-2.18-3.85-.56-1.41-.84-3.03-.84-4.87,0-1.45,.28-2.82,.84-4.11,.56-1.28,1.31-2.4,2.25-3.35,.95-.94,2.06-1.7,3.35-2.25C188.89,.28,190.26,0,191.71,0s2.81,.27,4.07,.81c1.26,.54,2.36,1.28,3.31,2.22,.95,.94,1.7,2.05,2.26,3.33,.56,1.29,.84,2.66,.84,4.11h-2.4c0-1.12-.22-2.16-.65-3.13-.44-.97-1.02-1.82-1.75-2.55-.73-.73-1.58-1.31-2.55-1.75-.97-.44-2.01-.65-3.13-.65s-2.17,.22-3.16,.66c-.99,.44-1.85,1.02-2.58,1.75-.73,.73-1.31,1.58-1.75,2.55-.44,.97-.65,2.02-.65,3.13,0,1.55,.24,2.93,.73,4.12s1.13,2.29,1.93,3.31c.8,1.02,1.72,1.98,2.76,2.88,1.04,.9,2.12,1.79,3.24,2.66Z"/><path class="cls-1" d="M10.45,49.43c1.45,0,2.81,.27,4.09,.8,1.28,.53,2.39,1.27,3.33,2.22,.94,.94,1.69,2.05,2.25,3.31,.55,1.26,.83,2.62,.83,4.07v28.37c0,1.45-.28,2.81-.83,4.07-.56,1.26-1.3,2.36-2.25,3.31-.94,.94-2.05,1.69-3.33,2.22-1.28,.53-2.64,.8-4.09,.8H.44V49.43H10.45Zm8.1,10.4c0-1.12-.22-2.16-.65-3.13-.44-.97-1.02-1.82-1.75-2.55s-1.58-1.3-2.55-1.71c-.97-.41-2.01-.62-3.13-.62H2.84v44.37h7.64c1.12,0,2.16-.21,3.13-.62,.97-.41,1.82-.98,2.55-1.71s1.31-1.58,1.75-2.55c.44-.97,.65-2.01,.65-3.13v-28.37Z"/><path class="cls-1" d="M28.51,51.83v18.62h13.75v2.4h-13.75v23.35h16.73v2.4H26.11V49.43h19.13v2.4H28.51Z"/><path class="cls-1" d="M69.75,49.43c1.45,0,2.8,.28,4.04,.84,1.24,.56,2.33,1.31,3.27,2.25,.95,.95,1.68,2.05,2.22,3.31,.53,1.26,.8,2.59,.8,4v10.04c0,1.41-.25,2.72-.76,3.93-.51,1.21-1.21,2.28-2.11,3.2-.9,.92-1.94,1.67-3.13,2.26-1.19,.58-2.46,.92-3.82,1.02h-7.71v18.33h-2.4V49.43h9.6Zm7.93,10.4c0-1.07-.22-2.08-.65-3.06-.44-.97-1.02-1.82-1.75-2.55s-1.58-1.31-2.55-1.75c-.97-.44-2.01-.65-3.13-.65h-7.06v26.04h7.2c1.12,0,2.16-.22,3.13-.65,.97-.44,1.81-1.02,2.51-1.75,.7-.73,1.26-1.56,1.67-2.51,.41-.95,.62-1.98,.62-3.09v-10.04Z"/><path class="cls-1" d="M104.61,98.6l-3.42-15.42h-14.11l-3.42,15.42h-2.47l10.91-49.17h4.07l10.91,49.17h-2.47Zm-17.02-17.82h13.09l-6.55-29.38-6.55,29.38Z"/><path class="cls-1" d="M128.29,49.43l-9.24,24.44-.07,.22v24.51h-2.33v-24.51l-.07-.22-9.24-24.44h2.54l7.9,21.09,7.97-21.09h2.54Z"/><path class="cls-1" d="M144.26,72.59c1.21,.97,2.41,1.98,3.6,3.02,1.19,1.04,2.25,2.19,3.2,3.42,.94,1.24,1.71,2.62,2.29,4.15s.87,3.27,.87,5.21c0,1.46-.28,2.83-.84,4.12-.56,1.29-1.31,2.4-2.26,3.35-.94,.95-2.05,1.7-3.31,2.26-1.26,.56-2.62,.84-4.07,.84-1.45,0-2.83-.28-4.11-.84-1.29-.56-2.4-1.31-3.35-2.25-.95-.95-1.7-2.06-2.25-3.35-.56-1.28-.84-2.65-.84-4.11h2.4c0,1.12,.22,2.17,.65,3.16,.44,.99,1.02,1.85,1.75,2.58s1.59,1.31,2.58,1.75c.99,.44,2.05,.65,3.16,.65s2.16-.22,3.13-.65c.97-.44,1.82-1.02,2.55-1.75,.73-.73,1.31-1.59,1.75-2.58,.44-.99,.65-2.05,.65-3.16,0-1.65-.25-3.13-.76-4.44-.51-1.31-1.19-2.51-2.04-3.6-.85-1.09-1.82-2.11-2.91-3.05-1.09-.95-2.22-1.88-3.38-2.8-1.16-.92-2.32-1.88-3.46-2.87-1.14-.99-2.16-2.07-3.06-3.24-.9-1.16-1.62-2.45-2.18-3.85-.56-1.41-.84-3.03-.84-4.87,0-1.45,.28-2.82,.84-4.11,.56-1.28,1.31-2.4,2.25-3.35,.95-.94,2.06-1.7,3.35-2.25,1.28-.56,2.65-.84,4.11-.84,1.45,0,2.81,.27,4.07,.81,1.26,.54,2.36,1.28,3.31,2.22,.95,.94,1.7,2.05,2.26,3.33,.56,1.29,.84,2.66,.84,4.11h-2.4c0-1.12-.22-2.16-.65-3.13-.44-.97-1.02-1.82-1.75-2.55-.73-.73-1.58-1.31-2.55-1.75-.97-.44-2.01-.65-3.13-.65s-2.17,.22-3.16,.66c-.99,.44-1.85,1.02-2.58,1.75-.73,.73-1.31,1.58-1.75,2.55-.44,.97-.65,2.02-.65,3.13,0,1.55,.24,2.93,.73,4.12s1.13,2.29,1.93,3.31c.8,1.02,1.72,1.98,2.76,2.88,1.04,.9,2.12,1.79,3.24,2.66Z"/></g></g></svg>