<?xml version="1.0" encoding="UTF-8"?><svg id="Calque_2" xmlns="http://www.w3.org/2000/svg" viewBox="0 0 204.86 113.98"><defs><style>.cls-1{fill:#1d1d1b;}</style></defs><g id="Calque_1-2"><g><g><path class="cls-1" d="M12.73,27.01c1.4,1.12,2.78,2.28,4.15,3.48,1.37,1.2,2.6,2.52,3.69,3.94,1.09,1.43,1.97,3.02,2.64,4.78,.67,1.76,1.01,3.76,1.01,6,0,1.68-.32,3.26-.96,4.74-.64,1.48-1.51,2.77-2.6,3.86-1.09,1.09-2.36,1.96-3.81,2.6-1.45,.64-3.01,.96-4.69,.96s-3.25-.32-4.73-.96c-1.48-.64-2.76-1.51-3.85-2.6-1.09-1.09-1.96-2.37-2.6-3.85-.64-1.48-.96-3.06-.96-4.73H2.76c0,1.29,.25,2.5,.75,3.64,.5,1.15,1.17,2.14,2.01,2.97s1.83,1.51,2.97,2.01c1.14,.5,2.36,.75,3.64,.75s2.48-.25,3.6-.75c1.12-.5,2.09-1.17,2.93-2.01s1.51-1.83,2.01-2.97c.5-1.14,.75-2.36,.75-3.64,0-1.9-.29-3.6-.88-5.11s-1.37-2.89-2.34-4.15c-.98-1.26-2.09-2.43-3.35-3.52-1.26-1.09-2.55-2.16-3.89-3.23-1.34-1.06-2.67-2.16-3.98-3.31-1.31-1.14-2.49-2.39-3.52-3.73-1.03-1.34-1.87-2.82-2.51-4.44-.64-1.62-.96-3.49-.96-5.61,0-1.67,.32-3.25,.96-4.73,.64-1.48,1.51-2.76,2.6-3.85S5.93,1.61,7.41,.96c1.48-.64,3.06-.96,4.73-.96s3.24,.31,4.69,.94c1.45,.62,2.72,1.47,3.81,2.55,1.09,1.08,1.95,2.36,2.6,3.84,.64,1.48,.96,3.06,.96,4.73h-2.76c0-1.28-.25-2.48-.75-3.6-.5-1.12-1.17-2.09-2.01-2.93-.84-.84-1.82-1.51-2.93-2.01-1.12-.5-2.32-.75-3.6-.75s-2.5,.25-3.64,.76c-1.15,.5-2.14,1.17-2.97,2.01-.84,.84-1.51,1.82-2.01,2.94-.5,1.12-.75,2.32-.75,3.61,0,1.79,.28,3.37,.84,4.74,.56,1.37,1.3,2.64,2.22,3.82,.92,1.18,1.98,2.28,3.18,3.31,1.2,1.04,2.44,2.06,3.73,3.06Z"/><path class="cls-1" d="M32.83,3.1V24.54h15.83v2.76h-15.83v26.89h19.26v2.76H30.07V.33h22.03V3.1h-19.26Z"/><path class="cls-1" d="M89.87,.33V56.95h-2.76V8.21l-13.99,38.44L59.05,8.21V56.95h-2.76V.33h2.85l13.99,38.19L87.02,.33h2.85Z"/><path class="cls-1" d="M100.17,3.1V24.54h15.83v2.76h-15.83v26.89h19.26v2.76h-22.03V.33h22.03V3.1h-19.26Z"/><path class="cls-1" d="M146.9,.33V56.95h-2.76L126.38,8.04V56.95h-2.76V.33h2.76l17.76,48.91V.33h2.76Z"/><path class="cls-1" d="M164.91,54.61c1.28,0,2.48-.25,3.6-.75,1.12-.5,2.09-1.17,2.93-2.01,.84-.84,1.51-1.83,2.01-2.97,.5-1.14,.75-2.36,.75-3.64h2.76c0,1.68-.32,3.25-.96,4.73-.64,1.48-1.51,2.76-2.6,3.85-1.09,1.09-2.36,1.96-3.81,2.6-1.45,.64-3.02,.96-4.69,.96s-3.25-.32-4.73-.96c-1.48-.64-2.76-1.51-3.85-2.6-1.09-1.09-1.96-2.37-2.6-3.85-.64-1.48-.96-3.06-.96-4.73V12.14c0-1.67,.32-3.25,.96-4.73,.64-1.48,1.51-2.76,2.6-3.85,1.09-1.09,2.37-1.95,3.85-2.6,1.48-.64,3.06-.96,4.73-.96s3.24,.31,4.69,.94c1.45,.62,2.72,1.47,3.81,2.55s1.95,2.36,2.6,3.84c.64,1.48,.96,3.06,.96,4.73h-2.76c0-1.28-.25-2.48-.75-3.6-.5-1.12-1.17-2.09-2.01-2.93-.84-.84-1.82-1.51-2.93-2.01-1.12-.5-2.32-.75-3.6-.75s-2.5,.25-3.64,.76c-1.15,.5-2.14,1.17-2.97,2.01-.84,.84-1.51,1.82-2.01,2.94-.5,1.12-.76,2.32-.76,3.61V45.21c0,1.29,.25,2.5,.76,3.65,.5,1.15,1.17,2.14,2.01,2.98,.84,.84,1.83,1.51,2.97,2.01,1.14,.5,2.36,.76,3.64,.76Z"/><path class="cls-1" d="M185.6,3.1V24.54h15.83v2.76h-15.83v26.89h19.26v2.76h-22.03V.33h22.03V3.1h-19.26Z"/></g><g><path class="cls-1" d="M25.09,56.94c1.67,0,3.24,.31,4.71,.92,1.47,.62,2.75,1.47,3.84,2.55,1.08,1.09,1.95,2.36,2.59,3.81,.64,1.45,.96,3.02,.96,4.69v32.66c0,1.67-.32,3.24-.96,4.69-.64,1.45-1.5,2.72-2.59,3.81-1.08,1.09-2.36,1.94-3.84,2.55-1.47,.62-3.05,.92-4.71,.92H13.57V56.94h11.52Zm9.33,11.98c0-1.28-.25-2.48-.75-3.6-.5-1.12-1.17-2.09-2.01-2.93-.84-.84-1.82-1.49-2.93-1.97-1.12-.47-2.32-.71-3.6-.71h-8.79v51.09h8.79c1.28,0,2.48-.24,3.6-.71,1.12-.47,2.09-1.13,2.93-1.97s1.51-1.81,2.01-2.93c.5-1.12,.75-2.32,.75-3.6v-32.66Z"/><path class="cls-1" d="M45.9,59.71v21.44h15.83v2.76h-15.83v26.89h19.26v2.76h-22.03V56.94h22.03v2.76h-19.26Z"/><path class="cls-1" d="M93.38,56.94c1.67,0,3.22,.32,4.65,.96,1.42,.64,2.68,1.51,3.77,2.6,1.09,1.09,1.94,2.36,2.56,3.81,.61,1.45,.92,2.99,.92,4.61v11.56c0,1.62-.29,3.13-.88,4.52-.59,1.4-1.4,2.63-2.43,3.69-1.03,1.06-2.23,1.93-3.6,2.6-1.37,.67-2.83,1.06-4.4,1.17h-8.88v21.11h-2.76V56.94h11.06Zm9.13,11.98c0-1.23-.25-2.4-.75-3.52-.5-1.12-1.17-2.09-2.01-2.93-.84-.84-1.82-1.51-2.93-2.01-1.12-.5-2.32-.75-3.6-.75h-8.12v29.99h8.29c1.28,0,2.48-.25,3.6-.75,1.12-.5,2.08-1.17,2.89-2.01,.81-.84,1.45-1.8,1.93-2.89,.47-1.09,.71-2.28,.71-3.56v-11.56Z"/><path class="cls-1" d="M133.5,113.56l-3.94-17.76h-16.25l-3.94,17.76h-2.85l12.56-56.62h4.69l12.56,56.62h-2.85Zm-19.6-20.52h15.08l-7.54-33.84-7.54,33.84Z"/><path class="cls-1" d="M162.9,56.94l-10.97,28.14-.08,.25v28.22h-2.76v-28.22l-.08-.25-10.97-28.14h3.01l9.38,24.29,9.47-24.29h3.01Z"/><path class="cls-1" d="M179.82,83.61c1.4,1.12,2.78,2.28,4.15,3.48,1.37,1.2,2.6,2.52,3.68,3.94,1.09,1.43,1.97,3.02,2.64,4.78,.67,1.76,1.01,3.76,1.01,6,0,1.68-.32,3.26-.96,4.74-.64,1.48-1.51,2.77-2.6,3.86-1.09,1.09-2.36,1.96-3.81,2.6-1.45,.64-3.02,.96-4.69,.96s-3.25-.32-4.73-.96c-1.48-.64-2.76-1.51-3.85-2.6-1.09-1.09-1.96-2.37-2.6-3.85-.64-1.48-.96-3.06-.96-4.73h2.76c0,1.28,.25,2.5,.76,3.64,.5,1.15,1.17,2.14,2.01,2.97,.84,.84,1.83,1.51,2.97,2.01,1.14,.5,2.36,.75,3.64,.75s2.48-.25,3.6-.75c1.12-.5,2.09-1.17,2.93-2.01s1.51-1.83,2.01-2.97c.5-1.14,.75-2.36,.75-3.64,0-1.9-.29-3.6-.88-5.11-.59-1.51-1.37-2.89-2.34-4.15-.98-1.26-2.09-2.43-3.35-3.52-1.26-1.09-2.55-2.16-3.89-3.23-1.34-1.06-2.67-2.16-3.98-3.31-1.31-1.14-2.49-2.39-3.52-3.73s-1.87-2.82-2.51-4.44c-.64-1.62-.96-3.49-.96-5.61,0-1.67,.32-3.25,.96-4.73,.64-1.48,1.51-2.76,2.6-3.85,1.09-1.09,2.37-1.95,3.85-2.6,1.48-.64,3.06-.96,4.73-.96s3.24,.31,4.69,.93c1.45,.62,2.72,1.47,3.81,2.55s1.95,2.36,2.6,3.84,.96,3.06,.96,4.73h-2.76c0-1.28-.25-2.48-.75-3.6-.5-1.12-1.17-2.09-2.01-2.93-.84-.84-1.82-1.51-2.93-2.01-1.12-.5-2.32-.75-3.6-.75s-2.5,.25-3.64,.76c-1.15,.5-2.14,1.18-2.97,2.01-.84,.84-1.51,1.82-2.01,2.93-.5,1.12-.76,2.32-.76,3.61,0,1.79,.28,3.37,.84,4.74,.56,1.37,1.3,2.64,2.22,3.82,.92,1.18,1.98,2.28,3.18,3.31,1.2,1.04,2.44,2.06,3.73,3.06Z"/></g></g></g></svg>